Coordinates
version=1
nRows=32
nColumns=12
inDegrees=yes

Units are S.I. units (second, meters, Newtons, ...)
Angles are in degrees

endheader
time	SC_y	SC_z	SC_x	AC_y	AC_z	AC_x	GH_y	GH_z	GH_yy	EL_x	PS_y
       0.0               -14.1          17.37          33.99           33.5         -13.88         -12.53          119.7          41.26          59.16          11.36          90.61
   0.02799               -14.1          17.37          33.99           33.5         -13.87         -12.52          119.6          41.26          59.13          11.36          90.61
   0.05598               -14.1          17.38           34.0           33.5         -13.87         -12.52          119.6          41.26          59.09          11.36           90.6
   0.08398               -14.1          17.38           34.0          33.51         -13.87         -12.51          119.5          41.26          59.05          11.37           90.6
     0.112               -14.1          17.38          34.01          33.51         -13.86         -12.51          119.5          41.26          59.01          11.37          90.59
      0.14               -14.1          17.38          34.01          33.52         -13.86         -12.51          119.4          41.26          58.97          11.37          90.59
     0.168               -14.1          17.39          34.02          33.52         -13.85          -12.5          119.4          41.25          58.92          11.38          90.59
    0.1959               -14.1          17.39          34.02          33.53         -13.85          -12.5          119.3          41.25          58.87          11.38          90.58
    0.2239              -14.11          17.39          34.03          33.53         -13.84         -12.49          119.3          41.25          58.81          11.39          90.57
    0.2519              -14.11           17.4          34.04          33.54         -13.84         -12.48          119.2          41.25          58.76          11.39          90.57
    0.2799              -14.11           17.4          34.04          33.55         -13.83         -12.48          119.1          41.25          58.69           11.4          90.56
    0.3079              -14.11           17.4          34.05          33.55         -13.82         -12.47          119.1          41.24          58.63           11.4          90.56
    0.3359              -14.11          17.41          34.06          33.56         -13.82         -12.46          119.0          41.24          58.55          11.41          90.55
    0.3639              -14.12          17.41          34.07          33.57         -13.81         -12.45          118.9          41.24          58.47          11.41          90.54
    0.3919              -14.12          17.42          34.08          33.58          -13.8         -12.45          118.8          41.23          58.39          11.42          90.53
    0.4199              -14.12          17.42          34.09          33.59         -13.79         -12.44          118.7          41.23           58.3          11.43          90.52
    0.4479              -14.12          17.43           34.1           33.6         -13.78         -12.43          118.6          41.23           58.2          11.44          90.51
    0.4759              -14.13          17.43          34.11          33.61         -13.77         -12.41          118.4          41.22          58.09          11.44           90.5
    0.5039              -14.13          17.44          34.13          33.63         -13.76          -12.4          118.3          41.22          57.97          11.45          90.49
    0.5319              -14.14          17.45          34.14          33.64         -13.75         -12.39          118.2          41.21          57.84          11.46          90.48
    0.5598              -14.14          17.45          34.16          33.66         -13.73         -12.37          118.0          41.21          57.69          11.48          90.46
    0.5878              -14.14          17.46          34.18          33.67         -13.72         -12.36          117.8           41.2          57.54          11.49          90.45
    0.6158              -14.15          17.47           34.2          33.69          -13.7         -12.34          117.6          41.19          57.36           11.5          90.43
    0.6438              -14.15          17.48          34.22          33.71         -13.68         -12.32          117.4          41.19          57.17          11.52          90.41
    0.6718              -14.16          17.49          34.24          33.74         -13.66          -12.3          117.2          41.18          56.95          11.53          90.39
    0.6998              -14.17          17.51          34.27          33.76         -13.64         -12.27          116.9          41.17          56.71          11.55          90.37
    0.7278              -14.18          17.52           34.3          33.79         -13.61         -12.24          116.6          41.16          56.44          11.57          90.34
    0.7558              -14.19          17.54          34.34          33.83         -13.58         -12.21          116.2          41.15          56.14           11.6          90.31
    0.7838               -14.2          17.56          34.38          33.86         -13.55         -12.18          115.9          41.13           55.8          11.62          90.28
    0.8118              -14.21          17.58          34.42          33.91         -13.51         -12.14          115.4          41.12          55.41          11.66          90.24
    0.8398              -14.22           17.6          34.47          33.95         -13.47         -12.09          114.9           41.1          54.97          11.69           90.2
    0.8678              -14.24          17.63          34.53          34.01         -13.42         -12.04          114.3          41.08          54.46          11.73          90.15
